<svg xmlns="http://www.w3.org/2000/svg" viewBox="0 0 283.46 283.47"><defs><clipPath id="a"><rect x="-2.9" y="416.19" width="289.13" height="289.13" fill="none"/></clipPath></defs><rect x="-2.76" y="-2.76" width="288.98" height="288.98" fill="#b9121b"/><polygon points="286.22 151.55 229.24 94.68 131.57 94.68 116.91 113.72 97.83 94.68 72.61 94.68 72.61 194.56 164.47 286.22 286.22 286.22 286.22 151.55" fill="#4c1b1b"/><path d="M97.83,94.68v44.16h.5c2.51-3.85,5.18-7.41,7.69-11l25.55-33.2H162.8l-37.24,42.53,39.24,57.35H135.08l-27.56-43.12L97.83,162v32.6H72.61V94.68Zm71,0-2.62,3-18,20.52h20.54l2.28-2.27H173v78.64h25.55V115.92h1.9l2.28,2.27h26.55V94.68Z" fill="#fff"/></svg>